<?xml version="1.0" encoding="UTF-8"?>
<svg width="16px" height="16px" viewBox="0 0 16 16" version="1.1" xmlns="http://www.w3.org/2000/svg" xmlns:xlink="http://www.w3.org/1999/xlink">
    <!-- Generator: Sketch 55.2 (78181) - https://sketchapp.com -->
    <title>user_edit</title>
    <desc>Created with Sketch.</desc>
    <g id="4.-编辑" stroke="none" stroke-width="1" fill="none" fill-rule="evenodd">
        <g id="我的追漫" transform="translate(-1430.000000, -121.000000)" fill="#32AAFF" fill-rule="nonzero">
            <g id="内部" transform="translate(380.000000, 80.000000)">
                <g id="内容" transform="translate(284.000000, 36.000000)">
                    <g id="编辑" transform="translate(766.000000, 3.000000)">
                        <g transform="translate(0.000000, 2.000000)" id="形状结合">
                            <path d="M10,1.4 C10.3313708,1.4 10.6,1.66862915 10.6,2 C10.6,2.33137085 10.3313708,2.6 10,2.6 L3,2.6 C2.7790861,2.6 2.6,2.7790861 2.6,3 L2.6,13 C2.6,13.2209139 2.7790861,13.4 3,13.4 L13,13.4 C13.2209139,13.4 13.4,13.2209139 13.4,13 L13.4,7 C13.4,6.66862915 13.6686292,6.4 14,6.4 C14.3313708,6.4 14.6,6.66862915 14.6,7 L14.6,13 C14.6,13.8836556 13.8836556,14.6 13,14.6 L3,14.6 C2.1163444,14.6 1.4,13.8836556 1.4,13 L1.4,3 C1.4,2.1163444 2.1163444,1.4 3,1.4 L10,1.4 Z M13.5757359,1.57573593 C13.8100505,1.34142136 14.1899495,1.34142136 14.4242641,1.57573593 C14.6585786,1.81005051 14.6585786,2.18994949 14.4242641,2.42426407 L5.42426407,11.4242641 C5.18994949,11.6585786 4.81005051,11.6585786 4.57573593,11.4242641 C4.34142136,11.1899495 4.34142136,10.8100505 4.57573593,10.5757359 L13.5757359,1.57573593 Z"></path>
                        </g>
                    </g>
                </g>
            </g>
        </g>
    </g>
</svg>