<svg id="图层_1" data-name="图层 1" xmlns="http://www.w3.org/2000/svg" viewBox="0 0 24 24"><title>我的-追漫</title><path d="M12,18.48,6.43,21.22a.7.7,0,0,1-1-.73l.88-6.14L2,9.9a.7.7,0,0,1,.38-1.18L8.49,7.66l2.89-5.49a.71.71,0,0,1,1.24,0l2.89,5.49,6.12,1.06A.7.7,0,0,1,22,9.9l-4.32,4.45.88,6.14a.7.7,0,0,1-1,.73Zm-.31-1.41a.75.75,0,0,1,.62,0L17,19.38l-.75-5.17a.7.7,0,0,1,.19-.59l3.64-3.75L14.94,9a.67.67,0,0,1-.5-.36L12,4,9.56,8.62a.67.67,0,0,1-.5.36l-5.14.89,3.64,3.75a.7.7,0,0,1,.19.59L7,19.38Z" style="fill:#fff;fill-opacity:0.8999999761581421;fill-rule:evenodd"/></svg>
