<svg id="图层_1" data-name="图层 1" xmlns="http://www.w3.org/2000/svg" viewBox="0 0 24 24"><title>reader_option_ico</title><path d="M12.85,1.68l7.66,4.43a1.68,1.68,0,0,1,.85,1.47v8.84a1.68,1.68,0,0,1-.85,1.47l-7.66,4.43a1.72,1.72,0,0,1-1.7,0L3.49,17.89a1.68,1.68,0,0,1-.85-1.47V7.58a1.68,1.68,0,0,1,.85-1.47l7.66-4.43A1.72,1.72,0,0,1,12.85,1.68Zm-.7,1.21a.32.32,0,0,0-.3,0L4.19,7.32A.3.3,0,0,0,4,7.58v8.84a.3.3,0,0,0,.15.26l7.66,4.43a.32.32,0,0,0,.3,0l7.66-4.43a.3.3,0,0,0,.15-.26V7.58a.3.3,0,0,0-.15-.26ZM12,15.7A3.7,3.7,0,1,1,15.7,12,3.7,3.7,0,0,1,12,15.7Zm0-1.4A2.3,2.3,0,1,0,9.7,12,2.3,2.3,0,0,0,12,14.3Z" style="fill:#fff;fill-opacity:0.8999999761581421;fill-rule:evenodd"/></svg>