<svg id="图层_1" data-name="图层 1" xmlns="http://www.w3.org/2000/svg" viewBox="0 0 24 24"><title>阅读器-评论-0</title><path d="M14.07,18.45a.66.66,0,0,1,.43-.15h4.9a1.9,1.9,0,0,0,1.9-1.9V5.6a1.9,1.9,0,0,0-1.9-1.9H4.6A1.9,1.9,0,0,0,2.7,5.6V16.4a1.9,1.9,0,0,0,1.9,1.9H10a.7.7,0,0,1,.7.7v2.07ZM4.6,19.7a3.3,3.3,0,0,1-3.3-3.3V5.6A3.3,3.3,0,0,1,4.6,2.3H19.4a3.3,3.3,0,0,1,3.3,3.3V16.4a3.3,3.3,0,0,1-3.3,3.3H14.74l-4.31,3.35A.7.7,0,0,1,9.3,22.5V19.7ZM8,9.7A.7.7,0,0,1,8,8.3h8a.7.7,0,0,1,0,1.4Zm0,4.5a.7.7,0,0,1,0-1.4h5a.7.7,0,0,1,0,1.4Z" style="fill:#fff"/></svg>